<svg xmlns="http://www.w3.org/2000/svg" viewBox="0 0 512 512" role="img" aria-label="Secret Santa icon">
  <defs>
    <linearGradient id="bg" x1="0" y1="0" x2="1" y2="1">
      <stop offset="0%" stop-color="#f44336" />
      <stop offset="100%" stop-color="#d32f2f" />
    </linearGradient>
  </defs>
  <rect width="512" height="512" fill="url(#bg)" rx="112" ry="112" />
  <g fill="#fff" transform="translate(100 120)">
    <path d="M156 0c-31.8 0-60 23.5-60 55.2 0 18 9.1 33.6 22.8 43.3C92.6 110 64 144.6 64 186.2 64 250 116 302 180 302s116-52 116-115.8c0-41.6-28.6-76.2-54.8-87.7C236.9 88.8 246 73.2 246 55.2 246 23.5 217.8 0 186 0ZM186 44c7.6 0 14 5.6 14 13s-6.4 13-14 13-14-5.6-14-13 6.4-13 14-13Zm0 80c36.9 0 66 31.2 66 70s-29.1 70-66 70-66-31.2-66-70 29.1-70 66-70Z"/>
    <circle cx="186" cy="192" r="26" fill="#ffeb3b" />
  </g>
</svg>
